<svg width="24" height="24" viewBox="0 0 24 24" fill="none" xmlns="http://www.w3.org/2000/svg">
<g clip-path="url(#clip0_9_30)">
<path d="M22.1519 3.00244H1.8481C0.83038 3.00244 0 3.83282 0 4.85054V19.1493C0 20.167 0.83038 20.9974 1.8481 20.9974H22.1519C23.1696 20.9974 24 20.167 24 19.1493V4.85054C24 3.83282 23.1696 3.00244 22.1519 3.00244ZM21.8835 4.36953L12.1266 12.7138L2.36962 4.36953H21.8835ZM22.6329 19.1493C22.6329 19.4126 22.4152 19.6303 22.1519 19.6303H1.8481C1.58481 19.6303 1.36709 19.4126 1.36709 19.1493V5.3113L11.681 14.1316C11.6861 14.1366 11.6962 14.1417 11.7013 14.1467C11.7063 14.1518 11.7165 14.1569 11.7215 14.1619C11.7367 14.1721 11.7468 14.1822 11.762 14.1873C11.7671 14.1923 11.7722 14.1923 11.7772 14.1974C11.7975 14.2075 11.8177 14.2176 11.838 14.2278C11.843 14.2278 11.8481 14.2328 11.8532 14.2328C11.8684 14.2379 11.8835 14.248 11.9038 14.2531C11.9089 14.2531 11.919 14.2581 11.9241 14.2581C11.9392 14.2632 11.9544 14.2683 11.9696 14.2683C11.9747 14.2683 11.9848 14.2733 11.9899 14.2733C12.0051 14.2784 12.0253 14.2784 12.0405 14.2835C12.0456 14.2835 12.0506 14.2835 12.0557 14.2835C12.0759 14.2835 12.1013 14.2885 12.1215 14.2885C12.1418 14.2885 12.1671 14.2885 12.1873 14.2835C12.1924 14.2835 12.1975 14.2835 12.2025 14.2835C12.2177 14.2835 12.238 14.2784 12.2532 14.2733C12.2582 14.2733 12.2684 14.2683 12.2734 14.2683C12.2886 14.2632 12.3038 14.2581 12.319 14.2581C12.3241 14.2581 12.3342 14.2531 12.3392 14.2531C12.3544 14.248 12.3696 14.2429 12.3899 14.2328C12.3949 14.2328 12.4 14.2278 12.4051 14.2278C12.4253 14.2176 12.4456 14.2075 12.4658 14.1974C12.4709 14.1923 12.4759 14.1923 12.481 14.1873C12.4962 14.1771 12.5063 14.1721 12.5215 14.1619C12.5266 14.1569 12.5367 14.1518 12.5418 14.1467C12.5468 14.1417 12.557 14.1366 12.562 14.1316L22.6329 5.52902V19.1493Z" fill="#00445B"/>
</g>
<defs>
<clipPath id="clip0_9_30">
<rect width="24" height="24" fill="white"/>
</clipPath>
</defs>
</svg>
