<svg width="85" height="14" viewBox="0 0 85 14" fill="none" xmlns="http://www.w3.org/2000/svg">
<path d="M7.08333 0.000488281L8.74872 4.73517L13.82 4.8373L9.77799 7.86562L11.2468 12.6634L7.08333 9.80034L2.91985 12.6634L4.38867 7.86562L0.346683 4.8373L5.41794 4.73517L7.08333 0.000488281Z" fill="#FDB44B"/>
<path d="M24.7918 0L26.4572 4.73468L31.5285 4.83681L27.4865 7.86513L28.9553 12.6629L24.7918 9.79985L20.6283 12.6629L22.0972 7.86513L18.0552 4.83681L23.1264 4.73468L24.7918 0Z" fill="#FDB44B"/>
<path d="M42.5001 0L44.1655 4.73468L49.2367 4.83681L45.1947 7.86513L46.6636 12.6629L42.5001 9.79985L38.3366 12.6629L39.8054 7.86513L35.7634 4.83681L40.8347 4.73468L42.5001 0Z" fill="#FDB44B"/>
<path d="M60.2083 0L61.8737 4.73468L66.945 4.83681L62.903 7.86513L64.3718 12.6629L60.2083 9.79985L56.0449 12.6629L57.5137 7.86513L53.4717 4.83681L58.5429 4.73468L60.2083 0Z" fill="#FDB44B"/>
<path d="M77.9168 0L79.5822 4.73468L84.6535 4.83681L80.6115 7.86513L82.0803 12.6629L77.9168 9.79985L73.7533 12.6629L75.2222 7.86513L71.1802 4.83681L76.2514 4.73468L77.9168 0Z" fill="#FDB44B"/>
</svg>
