<svg width="1200" height="260" viewBox="0 0 1200 260" fill="none" xmlns="http://www.w3.org/2000/svg">
<path fill-rule="evenodd" clip-rule="evenodd" d="M152.349 57.115C154.676 57.115 156.11 57.935 156.91 58.625L157.138 58.824L157.275 58.558C157.638 57.875 158.361 57.501 159.3 57.501H161.604L161.584 73.405C161.584 79.468 156.66 81.624 152.442 81.624C150.394 81.624 148.127 81.072 146.387 80.151L146.041 79.968L146.597 78.548L146.99 77.578C147.417 76.526 148.031 76.265 149.083 76.581C149.888 76.872 151.091 77.194 152.413 77.194C155.133 77.194 156.636 75.915 156.636 73.601V73.119L156.253 73.405C155.263 74.152 154.019 74.518 152.442 74.518C147.825 74.518 144.6 70.913 144.6 65.752C144.6 60.587 147.718 57.115 152.349 57.115ZM179.559 57.21C182.114 57.21 185.916 58.293 185.916 61.275V63.535L183.324 63.531C183.107 63.531 182.004 63.467 181.639 62.254L181.617 62.165C181.457 61.63 180.447 61.311 179.559 61.311C176.821 61.311 174.909 63.327 174.909 66.207C174.909 69.544 177.374 71.041 179.818 71.041C182.335 71.041 184.281 69.15 184.52 68.906L184.544 68.881L184.814 68.594L186.867 71.991L186.731 72.159C186.707 72.188 184.154 75.269 179.458 75.269C174.046 75.269 170.123 71.475 170.123 66.242C170.123 61.012 174.088 57.21 179.559 57.21ZM70.742 57.193C76.015 57.193 79.842 60.97 79.842 66.173C79.842 71.375 76.015 75.153 70.742 75.153C65.488 75.153 61.676 71.375 61.676 66.173C61.676 60.97 65.488 57.193 70.742 57.193ZM90.195 57.193C95.462 57.193 99.297 60.97 99.297 66.173C99.297 71.375 95.462 75.153 90.195 75.153C84.936 75.153 81.124 71.375 81.124 66.173C81.124 60.97 84.936 57.193 90.194 57.193H90.195ZM196.355 57.193C201.621 57.193 205.455 60.97 205.455 66.173C205.455 71.375 201.621 75.153 196.355 75.153C191.097 75.153 187.285 71.375 187.285 66.173C187.285 60.97 191.097 57.193 196.355 57.193ZM166.425 69.313C168.017 69.313 169.311 70.605 169.311 72.2C169.311 73.792 168.017 75.085 166.424 75.085C164.837 75.085 163.547 73.792 163.547 72.2C163.547 70.605 164.837 69.312 166.424 69.312L166.425 69.313ZM121.003 57.547C122.759 57.547 123.609 58.407 123.609 60.179L123.599 74.877H123.589V74.883H122.429L121.262 74.887C121.231 74.887 121.204 74.883 121.172 74.883H118.667V70.953H118.669L118.655 57.547H121.004H121.003ZM103.42 50.878C104.79 50.878 106.06 51.155 106.06 53.19V63.362H106.855C107.451 63.362 107.849 63.215 108.045 62.927L111.529 57.547H117.157L112.52 64.425C112.283 64.774 112.036 65.075 111.796 65.328L111.628 65.488L111.788 65.656C112.036 65.914 112.271 66.24 112.475 66.623L114.363 70.189L117.208 74.889H113.385C111.945 74.889 111.181 74.647 110.411 73.242L107.661 68.059C107.483 67.752 107.096 67.686 106.528 67.686H106.06V74.888H101.075L101.069 50.879H103.419L103.42 50.878ZM136.683 57.153C140.737 57.153 142.879 59.47 142.879 63.853L142.887 74.882H140.529C138.729 74.882 137.896 74.04 137.896 72.245V64.693C137.896 62.588 137.293 61.773 135.746 61.773C133.825 61.773 132.286 62.937 131.736 64.81C131.528 65.428 131.427 66.106 131.427 66.889V74.882H126.475L126.461 57.54H128.695C130.047 57.54 130.945 58.101 131.21 59.12L131.318 59.534L131.621 59.23C132.527 58.28 134.146 57.153 136.683 57.153ZM227.578 57.209L227.81 57.213C231.481 57.303 233.346 59.537 233.346 63.852L233.341 74.877H231.115C229.367 74.877 228.589 74.099 228.589 72.353V64.639C228.589 62.428 228.049 61.604 226.594 61.604C224.581 61.604 223.284 63.407 222.902 65.168C222.715 65.792 222.636 66.418 222.636 67.253V74.877H217.872V64.639C217.872 62.721 217.244 61.729 215.959 61.607C213.873 61.409 212.63 63.39 212.179 65.233C212.013 65.924 211.929 66.587 211.929 67.253V74.877H207.2L207.22 57.605H209.301C210.599 57.605 211.457 58.133 211.717 59.095L211.899 59.762L212.368 59.254C213.086 58.494 214.628 57.21 216.931 57.21C219.127 57.21 220.705 58.058 221.622 59.727L221.903 60.235L222.262 59.781C223.537 58.171 225.525 57.211 227.58 57.211L227.578 57.209ZM46.681 50.888H51.861C56.401 50.888 59.333 53.325 59.333 57.098C59.333 59.564 58.093 60.991 57.353 61.626L56.717 62.169L57.446 62.579C59.215 63.572 60.266 65.526 60.266 67.814C60.266 72.058 57.011 74.8 51.964 74.8L46.041 74.801L46.031 74.8H43.654V53.38C43.667 52.029 44.746 50.935 46.092 50.888H46.681ZM70.742 61.395C68.258 61.395 66.534 63.362 66.534 66.174C66.534 68.984 68.258 70.954 70.742 70.954C73.275 70.954 74.984 69.03 74.984 66.174C74.984 63.362 73.24 61.394 70.742 61.394V61.395ZM90.195 61.395C87.712 61.395 85.984 63.362 85.984 66.174C85.984 68.984 87.712 70.954 90.194 70.954C92.728 70.954 94.437 69.03 94.437 66.174C94.437 63.362 92.687 61.394 90.195 61.394V61.395ZM196.355 61.395C193.872 61.395 192.142 63.362 192.142 66.174C192.142 68.984 193.872 70.954 196.354 70.954C198.887 70.954 200.599 69.03 200.599 66.174C200.599 63.362 198.847 61.394 196.354 61.394L196.355 61.395ZM52.295 64.253H49.548C48.665 64.377 48.265 64.91 48.265 65.939V70.75L52.296 70.755C54.291 70.754 55.528 69.538 55.528 67.488C55.528 65.488 54.258 64.253 52.296 64.253H52.295ZM153.059 61.475C149.896 61.475 149.649 64.65 149.649 65.623C149.649 67.831 150.613 70.189 153.319 70.189C154.874 70.189 156.728 69.426 156.728 65.786C156.728 61.927 154.633 61.476 153.059 61.476V61.475ZM51.829 54.808H49.766C48.736 54.876 48.265 55.402 48.265 56.511V60.554H51.893C53.932 60.554 54.658 58.981 54.658 57.633C54.658 55.866 53.598 54.808 51.828 54.808H51.829ZM120.937 50.126C122.53 50.126 123.825 51.416 123.825 53.012C123.825 54.604 122.53 55.895 120.937 55.895C119.348 55.895 118.059 54.604 118.059 53.012C118.059 51.417 119.349 50.126 120.937 50.126Z" fill="#222222"/>
<path fill-rule="evenodd" clip-rule="evenodd" d="M391.237 75.7149V46.7669H408.226V50.3959H394.755V59.2959H406.853V62.9259H394.755V71.9989H409.17V75.6279H391.237V75.7149ZM427.017 75.7149L421.182 68.0249L415.347 75.7149H411.23L419.209 65.4319L410.8 54.8029H415.434L421.182 62.7539L427.017 54.8029H431.564L423.585 65.4319L431.136 75.7149H427.017ZM436.799 72.6039V86.8619H433.281V65.5179C433.281 60.0739 437.399 54.2849 443.835 54.2849C450.355 54.2849 455.246 58.4329 455.246 65.2589C455.246 71.9129 450.27 76.4929 444.607 76.4929C441.861 76.4929 438.172 75.2829 436.799 72.6039ZM451.557 65.2589C451.557 60.5929 448.554 57.8289 443.234 58.0869C440.66 58.1739 436.714 60.0739 437.056 66.7289C437.142 68.8889 439.373 72.9489 444.264 72.9489C448.468 72.9489 451.557 70.5299 451.557 65.2589ZM458.25 75.7149V54.8029H461.768V57.0499C463.484 55.0619 466.143 54.3709 468.975 54.3709V58.1739C468.546 58.0869 464.341 57.5679 461.768 63.0989V75.8019H458.25V75.7149ZM469.919 65.2599C469.919 59.2099 474.209 54.2849 480.129 54.2849C487.509 54.2849 490.254 59.2109 490.254 65.5179V67.2469H473.78C474.037 71.2219 477.555 73.2949 480.816 73.2089C483.218 73.1229 484.849 72.4319 486.566 70.7039L488.882 73.1239C486.737 75.1969 483.991 76.5789 480.645 76.5789C474.381 76.4929 469.919 71.8259 469.919 65.2589V65.2599ZM479.872 57.8289C476.526 57.8289 473.952 60.7649 473.78 63.9639H486.565C486.565 60.8519 484.335 57.8279 479.872 57.8279V57.8289ZM492.057 72.7769L494.63 70.4439C494.545 70.4439 495.918 71.8269 496.09 71.9129C496.69 72.4319 497.29 72.7769 498.063 72.9499C500.293 73.5549 504.326 73.3819 504.67 70.2709C504.841 68.5429 503.554 67.5919 502.096 66.9869C500.208 66.2969 498.148 66.0369 496.261 65.1729C494.115 64.2229 492.744 62.5809 492.744 60.1619C492.744 53.8519 501.666 52.8159 505.699 55.7539C505.871 55.9269 507.844 57.7409 507.759 57.7409L505.184 59.8159C503.898 58.2599 502.696 57.4819 499.951 57.4819C498.578 57.4819 496.69 58.0869 496.347 59.5559C495.832 61.6299 498.148 62.4079 499.693 62.8399C501.753 63.3579 503.983 63.7039 505.785 64.8269C508.274 66.3829 508.875 69.7519 507.93 72.3449C506.9 75.1969 503.811 76.3199 501.066 76.4049C497.806 76.5789 494.974 75.5419 492.657 73.2099C492.485 73.2099 492.057 72.7769 492.057 72.7769ZM510.161 72.7769L512.736 70.4439C512.65 70.4439 514.022 71.8269 514.194 71.9129C514.794 72.4319 515.396 72.7769 516.167 72.9499C518.397 73.5549 522.432 73.3819 522.775 70.2709C522.945 68.5429 521.659 67.5919 520.2 66.9869C518.312 66.2969 516.253 66.0369 514.366 65.1729C512.221 64.2229 510.848 62.5809 510.848 60.1619C510.848 53.8519 519.772 52.8159 523.804 55.7539C523.976 55.9269 525.949 57.7409 525.864 57.7409L523.29 59.8159C522.002 58.2599 520.8 57.4819 518.055 57.4819C516.682 57.4819 514.795 58.0869 514.451 59.5559C513.937 61.6299 516.253 62.4079 517.797 62.8399C519.857 63.3579 522.089 63.7039 523.89 64.8269C526.378 66.3829 526.98 69.7519 526.035 72.3449C525.005 75.1969 521.917 76.3199 519.17 76.4049C515.91 76.5789 513.079 75.5419 510.762 73.2099C510.59 73.2099 510.162 72.7769 510.162 72.7769H510.161ZM526.893 54.8029V52.5559H526.121V52.1239H528.18V52.5559H527.408V54.8029H526.893ZM530.754 54.8029V52.7299L529.982 54.8029H529.81L529.038 52.7299V54.8029H528.609V52.1239H529.296L529.982 53.9399L530.669 52.1239H531.355V54.8029H530.754ZM367.383 75.7149L364.809 68.8019H350.909L348.334 75.7149H344.645L355.8 46.7669H359.832L370.902 75.7149H367.383ZM357.687 50.9149L352.454 65.2599H363.35L357.687 50.9149ZM373.218 75.7149H376.822V46.7679H373.218V75.7149ZM382.227 75.7149H385.831V55.2359H382.227V75.7149ZM389.263 48.5819V48.2359C386.518 48.1499 384.286 45.9029 384.201 43.1379H383.686C383.6 45.9029 381.369 48.1499 378.624 48.2359V48.5819C381.369 48.6679 383.6 50.9149 383.686 53.6799H384.201C384.286 50.9149 386.518 48.6679 389.263 48.5819Z" fill="#222222"/>
<path fill-rule="evenodd" clip-rule="evenodd" d="M715.223 62.909C715.391 59.156 718.563 56.249 722.305 56.419L722.406 56.424C725.732 56.22 728.593 58.758 728.796 62.092C728.813 62.364 728.811 62.637 728.791 62.909H715.223ZM722.395 50.539C713.415 50.539 709.483 56.577 708.227 61.685C707.882 63.062 707.709 64.477 707.711 65.898C707.663 69.262 708.673 72.556 710.598 75.312C713.514 79.072 717.997 81.273 722.747 81.278C727.595 81.455 730.834 80.631 733.311 79.22C733.806 78.898 734.041 78.297 733.898 77.725V73.805C733.898 73.006 733.417 72.629 732.724 73.111C729.824 74.974 726.385 75.804 722.958 75.465C718.92 75.412 715.556 72.347 715.118 68.322H735.071C735.521 68.322 735.887 67.96 735.894 67.509C736.245 62.037 734.66 50.539 722.395 50.539ZM674.035 75.912H665.267C664.142 75.88 663.056 75.497 662.157 74.817C661.219 74.157 660.669 73.073 660.69 71.923C660.69 70.333 661.758 67.157 667.098 67.157H674.036V75.912H674.035ZM680.55 62.862C680.55 58.849 679.659 55.8 677.732 53.694C675.808 51.588 671.934 50.54 668.342 50.54C664.738 50.526 661.193 51.472 658.072 53.282C657.874 53.4 657.752 53.615 657.756 53.847L658.026 58.272C658.1 58.701 658.508 58.988 658.936 58.912C659.077 58.888 659.209 58.825 659.316 58.731C663.718 56.013 669 55.506 671.688 56.871C673.195 57.741 674.098 59.377 674.036 61.121V61.767H666.699C663.542 61.767 653.87 62.944 653.87 71.852V71.947C653.718 74.696 654.882 77.354 657.004 79.101C659.29 80.716 662.054 81.508 664.844 81.349H679.694C680.173 81.349 680.562 80.959 680.562 80.479V62.826L680.55 62.861V62.862ZM754.286 75.395C750.659 75.395 748.041 72.735 746.938 69.428C746.158 67.139 746.158 64.656 746.938 62.367C748.041 59.06 750.659 56.401 754.286 56.401C762.396 56.401 762.666 64.697 762.666 65.898C762.666 67.098 762.396 75.395 754.286 75.395ZM769.322 65.909C769.386 62.543 768.374 59.244 766.435 56.495C761.229 49.768 751.57 48.545 744.86 53.765C743.842 54.557 742.928 55.474 742.137 56.495C738.232 62.161 738.232 69.658 742.137 75.324C745.006 79.142 749.519 81.358 754.287 81.291C757.364 81.301 760.377 80.391 762.937 78.678V82.397C762.937 87.445 758.535 88.363 755.717 88.539C753.779 88.604 751.839 88.498 749.919 88.222C749.145 88.104 748.605 88.222 748.605 89.057V93.529C748.625 93.952 748.981 94.279 749.402 94.259H749.403C755.941 94.824 760.343 94.706 763.653 92.812C765.971 91.437 767.693 89.241 768.477 86.657C769.062 84.663 769.343 82.592 769.31 80.514V65.909H769.322ZM790.932 52.269V55.8C790.998 56.303 790.646 56.765 790.145 56.833C790.015 56.85 789.882 56.839 789.757 56.801C784.052 55.624 780.543 58.166 780.543 63.451V80.514C780.543 80.994 780.153 81.384 779.675 81.384H774.627C774.147 81.384 773.759 80.994 773.759 80.514V63.085C773.698 59.751 775.049 56.547 777.479 54.271C779.947 51.852 783.266 50.507 786.717 50.528C787.899 50.531 789.077 50.641 790.238 50.858C790.837 51.058 790.931 51.411 790.931 52.318V52.27L790.932 52.269ZM691.958 80.515C691.958 80.995 691.568 81.385 691.089 81.385H686.042C685.562 81.385 685.173 80.995 685.173 80.515V38.915C685.173 38.438 685.555 38.049 686.03 38.043H691.077C691.557 38.043 691.947 38.433 691.947 38.915V80.515H691.957H691.958ZM703.813 80.515C703.813 80.995 703.423 81.385 702.945 81.385H697.897C697.417 81.385 697.028 80.995 697.028 80.515V38.915C697.028 38.433 697.418 38.043 697.897 38.043H702.945C703.424 38.043 703.813 38.433 703.813 38.915V80.515ZM814.441 69.453C813.337 72.76 810.719 75.336 807.093 75.419C803.465 75.502 800.848 72.759 799.756 69.453C798.976 67.163 798.976 64.68 799.756 62.392C800.86 59.085 803.477 56.507 807.093 56.425C810.708 56.343 813.337 59.085 814.441 62.392C815.217 64.677 815.217 67.156 814.441 69.441V69.453ZM819.253 56.507C814.047 49.781 804.388 48.559 797.678 53.777C796.661 54.57 795.746 55.487 794.956 56.507C793.029 59.264 792.019 62.557 792.068 65.922C792.019 69.287 793.029 72.581 794.956 75.336C800.162 82.063 809.821 83.286 816.53 78.066C817.548 77.275 818.463 76.358 819.253 75.336C821.178 72.581 822.189 69.286 822.141 65.922C822.189 62.558 821.178 59.264 819.253 56.507Z" fill="#222222"/>
<path fill-rule="evenodd" clip-rule="evenodd" d="M1010.34 60.2381H998.493C998.097 60.2381 997.798 59.9361 997.798 59.5371V58.0781C997.79 57.7231 997.903 57.5621 998.121 57.2901L1007.55 46.2351H998.31C997.916 46.2351 997.617 45.9321 997.616 45.5351V44.5021C997.617 44.1021 997.916 43.8031 998.31 43.8011H1010.28C1010.68 43.8031 1010.98 44.1021 1010.98 44.5021V45.9901C1010.98 46.2581 1010.89 46.4861 1010.68 46.7271L1001.22 57.8031H1010.34C1010.74 57.8041 1011.04 58.1061 1011.04 58.5041V59.5371C1011.04 59.9361 1010.74 60.2381 1010.34 60.2381H1010.34ZM1033.7 60.5421H1033.71C1034.56 60.5251 1035.18 60.3551 1035.43 60.0781C1035.52 59.9781 1035.56 59.8651 1035.55 59.7541C1035.54 59.6611 1035.54 59.6611 1035.31 58.5611L1035.3 58.5341C1035.25 58.2471 1035.05 58.1161 1034.88 58.1161L1034.86 58.1171C1034.86 58.1171 1034.64 58.1071 1034.43 58.1071H1034.43C1033.83 58.0891 1033.33 57.9991 1033.31 57.1071V38.4361C1033.31 38.1251 1033.13 37.8081 1032.77 37.7981L1032.67 37.7991L1031.01 38.2251C1030.73 38.2551 1030.44 38.4571 1030.45 38.8321V57.1681C1030.45 59.3411 1031.61 60.5381 1033.7 60.5431V60.5421ZM1067.16 60.2381H1065.68C1065.28 60.2381 1064.99 59.9361 1064.98 59.5371V48.2981C1064.96 46.3981 1064.4 45.8681 1062.36 45.8381C1060.06 45.8381 1057.74 46.4201 1056.97 46.6311V59.5371C1056.97 59.9431 1056.69 60.2381 1056.31 60.2381H1054.8C1054.41 60.2381 1054.11 59.9361 1054.11 59.5371V46.9321C1054.08 45.7651 1054.19 44.9581 1055.84 44.4221C1057.42 43.8721 1060.43 43.4071 1062.43 43.4061C1066.22 43.4111 1067.85 44.7931 1067.85 48.0241V59.5371C1067.85 59.9361 1067.55 60.2381 1067.16 60.2381H1067.16ZM1082 46.3001C1081.45 46.1591 1079.91 45.8101 1078.17 45.8101C1074.99 45.8391 1073.66 46.7101 1073.62 52.0351C1073.66 57.8821 1075.39 58.1981 1078.2 58.2281V58.3521V58.2281C1079.96 58.2281 1081.46 57.8601 1082 57.7121L1082 46.3001ZM1082.77 60.0191L1082.6 60.0641C1081.66 60.3041 1080.37 60.6331 1078.11 60.6331H1078.11C1071.89 60.6241 1070.67 57.4611 1070.67 52.0041C1070.67 45.7441 1072.64 43.4141 1077.93 43.4061C1079.79 43.4061 1081.08 43.6491 1082 43.8741L1082 38.8331C1081.99 38.6101 1082.09 38.3211 1082.61 38.2211L1084.26 37.7971H1084.35C1084.73 37.8071 1084.86 38.1471 1084.86 38.4351V57.3821C1084.89 58.5761 1084.75 59.6021 1082.77 60.0191ZM1094.83 58.1991C1090.76 58.1811 1090.55 56.0731 1090.52 52.0351C1090.55 47.9761 1090.75 45.8581 1094.83 45.8391C1098.9 45.8591 1099.11 47.9761 1099.14 52.0321C1099.11 56.0721 1098.9 58.1811 1094.83 58.1981V58.1991ZM1094.83 43.4061C1088.11 43.4161 1087.54 47.8631 1087.54 52.0351C1087.54 56.1891 1088.11 60.6251 1094.83 60.6331H1094.83C1101.54 60.6241 1102.11 56.2031 1102.12 52.0351C1102.12 47.6741 1101.55 43.4151 1094.83 43.4051V43.4061ZM1048.27 52.1221C1047.59 52.1301 1044.33 52.1821 1043.03 52.4631L1042.93 52.4861C1041.47 52.8151 1040.31 53.0731 1040.3 55.2541C1040.3 57.9961 1042.39 58.2421 1044.52 58.2601L1044.52 58.3831V58.2601C1045.86 58.2601 1047.12 58.0681 1048.27 57.6931V52.1221H1048.27ZM1051.15 48.1161V56.8331C1051.18 59.0031 1050.63 59.6931 1048.46 60.2001C1047.51 60.3981 1046.06 60.6311 1044.49 60.6331C1042.17 60.6271 1037.35 60.6181 1037.34 55.3751C1037.33 51.2461 1039.79 50.5281 1042.76 50.0681C1044.71 49.7531 1046.69 49.7061 1047.7 49.7061C1047.97 49.7061 1048.15 49.7081 1048.25 49.7111V48.2371C1048.24 47.2531 1048.24 46.6571 1047.32 46.3091C1046.76 46.0711 1045.92 45.9601 1044.68 45.9601C1042.62 45.9601 1040.78 46.4261 1039.56 46.7341L1039.09 46.8441C1039.04 46.8571 1038.99 46.8691 1038.92 46.8741C1038.7 46.8741 1038.47 46.7441 1038.38 46.4591L1038.37 46.4331L1038.1 45.0291V44.9581C1038.1 44.6261 1038.34 44.4321 1038.56 44.3621C1039.54 43.9921 1042.14 43.4071 1044.94 43.4061C1046.99 43.4071 1048.46 43.6751 1049.46 44.2251C1051.16 45.1311 1051.15 46.7861 1051.15 48.1151V48.1161ZM1024.15 57.6931C1023 58.0681 1021.74 58.2601 1020.41 58.2601V58.3831L1020.4 58.2601C1018.27 58.2421 1016.19 57.9961 1016.19 55.2541C1016.2 53.0741 1017.36 52.8141 1018.82 52.4861L1018.92 52.4631C1020.22 52.1821 1023.48 52.1301 1024.15 52.1221V57.6931ZM1025.34 44.2251C1024.35 43.6751 1022.87 43.4071 1020.83 43.4051C1018.03 43.4071 1015.43 43.9921 1014.45 44.3621C1014.22 44.4321 1013.99 44.6261 1013.98 44.9581L1013.98 45.0291L1014.26 46.4331L1014.27 46.4591C1014.35 46.7451 1014.59 46.8731 1014.8 46.8731H1014.8C1014.87 46.8691 1014.93 46.8571 1014.98 46.8451L1015.44 46.7351C1016.66 46.4251 1018.5 45.9601 1020.56 45.9601C1021.81 45.9601 1022.65 46.0711 1023.21 46.3101C1024.12 46.6581 1024.13 47.2531 1024.14 48.2371V49.7111C1024.03 49.7081 1023.86 49.7061 1023.59 49.7061C1022.58 49.7061 1020.6 49.7531 1018.65 50.0681C1015.68 50.5281 1013.22 51.2461 1013.23 55.3751C1013.23 60.6181 1018.06 60.6271 1020.37 60.6331C1021.95 60.6311 1023.4 60.3981 1024.35 60.2001C1026.51 59.6931 1027.06 59.0021 1027.03 56.8331V48.1161C1027.04 46.7861 1027.04 45.1311 1025.34 44.2251Z" fill="#222222"/>
<path fill-rule="evenodd" clip-rule="evenodd" d="M1086.5 78.9712C1086.47 77.8412 1086.41 76.7452 1086.13 75.6472C1085.63 73.7022 1084.48 73.1082 1082.15 73.1082C1079.76 73.1082 1078.64 73.7362 1078.14 75.6482C1077.86 76.7142 1077.83 77.8722 1077.8 79.0022L1086.5 78.9722V78.9712ZM1089.46 79.1902V80.7262C1089.46 80.9462 1089.24 81.1962 1089.02 81.1962H1077.83C1077.83 82.8582 1078.17 83.7972 1078.88 84.5812C1079.76 85.5862 1081.18 85.9312 1083.24 85.9312C1085.17 85.9312 1086.41 85.5212 1087.75 85.1452C1087.81 85.1152 1087.87 85.1152 1087.93 85.1152C1088.09 85.1152 1088.18 85.2092 1088.27 85.4282L1088.62 86.7132C1088.65 86.7452 1088.65 86.8082 1088.65 86.8392C1088.65 87.0272 1088.52 87.1542 1088.31 87.2162C1087.09 87.7162 1085.04 88.1562 1082.9 88.1562C1076.8 88.1562 1074.84 85.3972 1074.84 79.5352C1074.84 74.1112 1076.05 70.8822 1082.18 70.8822C1085.41 70.8822 1087.31 71.8552 1088.37 73.5472C1089.24 74.9902 1089.46 76.9332 1089.46 79.1902ZM1068.9 85.3962C1068.9 85.3962 1067.16 85.9612 1065.01 85.9612C1061.99 85.9612 1060.35 85.3332 1060.35 79.5342C1060.35 74.1422 1061.75 73.1072 1064.98 73.1072C1067.06 73.1072 1068.9 73.6082 1068.9 73.6082V85.3962ZM1071.76 88.8202V74.0802C1071.76 72.9202 1071.67 72.0122 1069.74 71.5402C1068.62 71.2572 1066.97 70.8822 1064.76 70.8822C1059.16 70.8822 1057.36 73.3592 1057.36 79.5662C1057.36 85.2092 1058.67 88.1562 1064.67 88.1562C1066.91 88.1562 1068 87.8652 1069 87.6122L1068.89 87.7622V90.1812C1068.8 92.0912 1067.92 93.5822 1064.57 93.5822C1062.09 93.5822 1060.63 92.8802 1059.94 91.2432C1059.84 91.0992 1059.67 91.0492 1059.47 91.1312L1057.97 91.7302C1057.73 91.8272 1057.67 92.0222 1057.75 92.2402L1057.75 92.2472C1058.54 94.6082 1060.58 95.8642 1064.57 95.8642C1070.76 95.8642 1071.76 92.6412 1071.76 89.3512V88.8212H1071.76V88.8202ZM1054.28 75.4602V87.2792C1054.28 87.5592 1054.12 87.7472 1053.81 87.7472H1051.89C1051.58 87.7472 1051.39 87.5592 1051.39 87.2792V75.8032C1051.39 73.7982 1050.64 73.1082 1048.62 73.1082C1045.98 73.1082 1043.27 73.8922 1043.27 73.8922V87.2802C1043.27 87.5602 1043.12 87.7482 1042.81 87.7482H1040.88C1040.57 87.7482 1040.38 87.5602 1040.38 87.2802V74.1432C1040.38 72.9192 1040.57 72.3872 1042.18 71.8552C1043.8 71.3222 1046.78 70.8822 1048.78 70.8822C1052.51 70.8822 1054.28 72.0122 1054.28 75.4602H1054.28ZM1036.81 70.8802H1036.68L1034.69 71.3522C1034.41 71.3822 1034.26 71.5082 1034.26 71.8222L1034.29 81.9482C1034.29 84.1412 1033.92 85.9612 1030.21 85.9612C1027.1 85.9612 1026.14 84.7362 1026.14 82.0112V71.3232C1026.14 71.1032 1026.05 70.8832 1025.8 70.8832H1025.71L1023.68 71.3232C1023.43 71.3852 1023.25 71.5102 1023.25 71.7932V81.7622C1023.25 85.9632 1024.83 88.1582 1030.21 88.1582C1036.4 88.1582 1037.15 85.0222 1037.15 81.7302V71.3222C1037.15 71.0712 1037.05 70.8822 1036.81 70.8822V70.8802ZM1017.44 79.5342C1017.44 75.5842 1017.25 73.1072 1013.02 73.1072C1008.82 73.1072 1008.64 75.5842 1008.64 79.5342C1008.64 83.4532 1008.82 85.9302 1013.02 85.9302C1017.25 85.9302 1017.44 83.4532 1017.44 79.5342ZM1020.42 79.5342C1020.42 84.2662 1019.65 88.1562 1013.02 88.1562C1006.43 88.1562 1005.62 84.2662 1005.62 79.5342C1005.62 74.7682 1006.43 70.8812 1013.02 70.8812C1019.65 70.8812 1020.42 74.7682 1020.42 79.5342ZM1003.87 85.6472C1003.84 85.6472 1003.8 85.6782 1003.74 85.6782C1003.56 85.7112 1003.09 85.8042 1002.65 85.8042C1002.03 85.8042 1001.28 85.6162 1001.28 84.4862V65.7202C1001.28 65.4702 1001.19 65.2832 1000.94 65.2832H1000.85L998.829 65.7512C998.549 65.7852 998.394 65.9112 998.394 66.1912V84.6132C998.394 86.9652 999.699 88.0622 1001.78 88.0622C1003.03 88.0622 1003.9 87.7802 1004.15 87.6552C1004.21 87.6552 1004.39 87.5602 1004.39 87.3102V87.2162L1004.11 85.9312C1004.08 85.7112 1003.99 85.6472 1003.87 85.6472Z" fill="#222222"/>
<path fill-rule="evenodd" clip-rule="evenodd" d="M989.324 49.0502L989.321 49.0512L989.129 48.8382C986.335 45.7492 980.539 42.0132 973.979 42.0132C971.924 42.0132 970.864 47.6502 970.956 52.8772L970.95 52.8762C971.06 57.4942 972.09 61.9202 974.135 61.9202C981.975 61.9202 990.905 54.5962 990.905 51.9712C990.905 51.3142 990.228 50.0472 989.325 49.0502" fill="#222222"/>
<path fill-rule="evenodd" clip-rule="evenodd" d="M103.174 229.916H172.824V160.084H103.174V229.916Z" fill="#222222"/>
<path fill-rule="evenodd" clip-rule="evenodd" d="M138 164.027C120.941 164.027 107.105 177.9 107.105 195.01C107.105 212.102 120.941 225.976 137.998 225.976C155.054 225.976 168.891 212.102 168.891 195.01C168.892 177.9 155.055 164.027 137.999 164.027" fill="white"/>
<path fill-rule="evenodd" clip-rule="evenodd" d="M136.079 195.869L130.63 190.407L124.339 196.719V198.839L125.923 197.243L130.31 201.652L128.692 203.276L129.745 204.342L138.521 195.523V193.414L136.079 195.869ZM110.617 189.253H120.332V191.355H118.712V198.15L124.339 195.01V200.766H110.617V198.655H112.246V191.355H110.617V189.253ZM151.579 189.253V191.355H153.206V198.655H151.579V200.766H165.309V195.01L159.672 198.15V191.355H161.301V189.253H151.579ZM129.824 182.708C131.734 182.708 133.284 184.252 133.284 186.166C133.284 188.082 131.734 189.636 129.824 189.636C127.914 189.636 126.365 188.082 126.365 186.166C126.365 184.251 127.915 182.708 129.825 182.708" fill="#222222"/>
<path fill-rule="evenodd" clip-rule="evenodd" d="M146.164 189.253H136.902V191.355H138.522V198.655H136.902V200.765H146.164C153.012 200.765 153.082 189.253 146.164 189.253Z" fill="#222222"/>
<path fill-rule="evenodd" clip-rule="evenodd" d="M144.863 197.173H144.403V192.828H144.793C146.819 192.828 146.819 197.183 144.863 197.173Z" fill="white"/>
<path fill-rule="evenodd" clip-rule="evenodd" d="M505.098 190.833C505.005 190.721 504.864 190.654 504.715 190.654H502.119C501.883 190.654 501.676 190.819 501.629 191.05L501.427 192.03C500.851 191.514 500.276 191.184 499.452 190.865L499.194 190.752C499.162 190.741 499.131 190.728 499.098 190.722C496.28 190.105 493.447 190.952 491.128 193.106C489.97 194.169 489.092 195.401 488.51 196.727L491.92 182.911C491.95 182.801 491.924 182.681 491.853 182.591C491.783 182.501 491.673 182.448 491.558 182.448H488.398C488.288 182.448 488.188 182.493 488.117 182.575L474.367 198.057C474.849 195.737 477.551 182.898 477.551 182.898C477.551 182.873 477.558 182.845 477.558 182.821C477.558 182.738 477.531 182.652 477.474 182.586C477.404 182.499 477.295 182.448 477.184 182.448H473.694C473.583 182.448 473.479 182.496 473.409 182.575L455.971 202.665C455.678 199.74 454.284 196.555 454.284 196.555C451.947 191.778 446.747 190.231 443.798 192.97L443.778 192.975L443.315 193.31C445.454 189.904 450.882 190.056 454.375 194.066C454.375 194.066 455.928 195.928 457.029 198.698C457.323 197.72 457.503 196.706 457.558 195.67C455.738 193.215 453.688 191.773 453.688 191.773C449.274 188.803 443.991 190.057 442.81 193.9L442.794 193.916L442.566 194.436C442.71 190.416 447.484 187.844 452.518 189.573C452.518 189.573 454.888 190.441 457.28 192.363C457.248 192.21 457.215 192.057 457.173 191.903C456.915 190.888 456.539 189.925 456.056 189.028C453.266 187.823 450.792 187.599 450.792 187.599C445.479 187.231 441.535 190.947 442.439 194.865L442.432 194.886L442.492 195.453C440.604 191.899 443.448 187.293 448.672 186.276C448.672 186.276 451.099 185.856 454.082 186.299C453.326 185.502 452.462 184.804 451.504 184.214C448.513 184.564 446.281 185.597 446.281 185.597C441.498 187.925 439.944 193.114 442.691 196.059L442.694 196.076L443.031 196.539C439.616 194.403 439.771 188.992 443.787 185.506C443.787 185.506 445.664 183.946 448.457 182.84C447.305 182.496 446.11 182.32 444.906 182.313C442.571 184.085 441.209 186.01 441.209 186.01C438.232 190.415 439.489 195.683 443.34 196.863L443.355 196.875L443.878 197.108C439.851 196.964 437.272 192.2 439.004 187.178C439.004 187.178 439.802 185.012 441.562 182.735C440.554 182.996 439.601 183.377 438.707 183.855C437.57 186.56 437.357 188.915 437.357 188.915C436.987 194.215 440.715 198.15 444.643 197.251L444.661 197.256L445.231 197.193C441.669 199.079 437.048 196.241 436.034 191.026C436.034 191.026 435.627 188.696 436.034 185.793C435.185 186.595 434.442 187.516 433.827 188.545C434.208 191.405 435.182 193.507 435.182 193.507C437.517 198.282 442.717 199.831 445.666 197.09L445.688 197.086L446.15 196.752C444.012 200.157 438.583 200.005 435.092 195.995C435.092 195.995 433.302 193.764 432.366 191.165C432.368 191.043 432.331 190.926 432.254 190.833C432.158 190.721 432.018 190.654 431.866 190.654H429.273C429.035 190.654 428.83 190.819 428.78 191.05C428.78 191.05 428.581 191.352 428.49 191.946C427.914 191.432 427.231 191.134 426.608 190.865L426.344 190.752C426.314 190.741 426.281 190.728 426.251 190.722C423.433 190.105 420.601 190.952 418.281 193.106C416.91 194.365 415.926 195.858 415.367 197.471L415.319 197.577L416.422 191.237C416.446 191.094 416.406 190.944 416.31 190.831C416.213 190.719 416.072 190.653 415.926 190.654L413.158 190.658C412.916 190.659 412.708 190.831 412.665 191.071L409.805 206.627C409.78 206.773 409.821 206.924 409.915 207.039C410.01 207.15 410.152 207.215 410.3 207.215L413.217 207.222C413.463 207.222 413.672 207.046 413.712 206.806L414.814 200.476C414.826 200.516 414.836 200.542 414.836 200.542C414.826 201.171 414.878 201.809 414.996 202.446C415.425 204.825 417.539 207.044 419.818 207.496C421.806 207.855 423.932 207.352 426.03 206.06C425.989 206.286 425.923 206.627 425.923 206.627C425.917 206.657 425.915 206.687 425.915 206.719C425.915 206.835 425.955 206.949 426.03 207.039C426.124 207.152 426.266 207.215 426.418 207.215L428.992 207.222C429.234 207.222 429.442 207.052 429.486 206.814L431.752 194.571C433.447 196.579 435.664 198.294 435.664 198.294C440.077 201.266 445.358 200.011 446.539 196.17L446.557 196.153L446.786 195.631C446.642 199.65 441.866 202.226 436.832 200.494C436.832 200.494 434.661 199.698 432.374 197.942C432.393 198.025 432.41 198.111 432.431 198.196C432.703 199.247 433.096 200.245 433.605 201.171C436.265 202.264 438.56 202.471 438.56 202.471C443.87 202.841 447.815 199.122 446.913 195.203L446.92 195.183L446.857 194.614C448.747 198.168 445.902 202.781 440.675 203.791C440.675 203.791 438.392 204.191 435.528 203.804C436.214 204.524 436.986 205.17 437.839 205.724C440.807 205.365 443.005 204.345 443.005 204.345C447.79 202.018 449.346 196.828 446.599 193.886L446.593 193.864L446.257 193.404C449.673 195.539 449.52 200.95 445.503 204.437C445.503 204.437 443.587 206.024 440.755 207.132C441.535 207.395 442.339 207.581 443.152 207.688H444.31C446.689 205.898 448.077 203.932 448.077 203.932C451.057 199.527 449.801 194.257 445.947 193.08L445.932 193.064L445.411 192.834C449.439 192.979 452.019 197.742 450.286 202.766C450.286 202.766 449.42 205.116 447.501 207.499C447.655 207.465 447.803 207.433 447.956 207.393C448.93 207.147 449.846 206.786 450.697 206.348C451.887 203.585 452.107 201.143 452.107 201.143C452.48 195.847 448.751 191.909 444.82 192.81L444.804 192.806L444.235 192.866C447.795 190.982 452.419 193.82 453.435 199.035C453.435 199.035 454.021 201.429 453.582 204.265C453.498 204.675 453.326 205.268 452.994 205.902C452.894 206.078 452.769 206.286 452.617 206.528L452.621 206.521C452.619 206.528 452.613 206.533 452.609 206.541C452.605 206.548 452.605 206.549 452.605 206.555C452.545 206.656 452.533 206.783 452.585 206.895C452.643 207.029 452.777 207.114 452.926 207.111H454.545C455.397 207.107 456.128 207.102 457.101 207.136C457.217 207.138 457.328 207.088 457.402 207.003L471.482 190.209C470.888 193.273 469.203 201.151 467.997 206.682C467.994 206.709 467.991 206.736 467.991 206.762C467.991 206.847 468.019 206.93 468.071 206.996C468.144 207.086 468.251 207.136 468.369 207.136L471.217 207.111C471.325 207.111 471.428 207.065 471.498 206.981C471.498 206.981 484.127 192.244 485.743 190.361C485.07 193.437 483.226 201.207 481.912 206.674C481.902 206.704 481.898 206.73 481.898 206.761C481.898 206.842 481.926 206.925 481.98 206.992C482.052 207.083 482.159 207.136 482.276 207.136H485.644C485.816 207.136 485.969 207.019 486.01 206.849L487.468 200.948L487.671 200.118C487.678 200.355 487.681 200.542 487.681 200.542C487.674 201.171 487.726 201.809 487.844 202.446C488.269 204.825 490.388 207.044 492.663 207.496C494.65 207.855 496.779 207.352 498.876 206.06L498.769 206.627C498.764 206.657 498.76 206.687 498.76 206.719C498.76 206.835 498.8 206.949 498.874 207.039C498.972 207.152 499.114 207.215 499.26 207.215L501.836 207.222C502.081 207.222 502.287 207.052 502.331 206.814L504.657 194.487L505.214 191.165C505.216 191.043 505.178 190.926 505.097 190.833H505.098ZM343.37 206.896V206.586C343.386 206.554 343.405 206.523 343.43 206.496L364.234 182.575C364.306 182.495 364.408 182.447 364.519 182.447H367.877C367.987 182.447 368.093 182.498 368.167 182.585C368.22 182.651 368.251 182.739 368.251 182.82C368.251 182.844 368.246 182.872 368.241 182.897C368.241 182.897 365.636 195.735 365.151 198.057C366.794 196.207 378.903 182.575 378.903 182.575C378.973 182.493 379.077 182.448 379.181 182.448H382.343C382.459 182.448 382.569 182.501 382.64 182.591C382.71 182.681 382.736 182.801 382.706 182.911L379.388 196.351C379.416 196.301 379.439 196.252 379.465 196.206C381.044 193.142 384.045 190.988 387.292 190.592C387.302 190.589 387.315 190.589 387.328 190.589C390.265 190.441 392.532 191.549 393.891 193.789L393.913 193.825C394.401 194.803 394.765 196.118 394.83 197.471C395.385 195.858 396.37 194.365 397.74 193.106C400.06 190.952 402.89 190.105 405.711 190.722C405.74 190.728 405.775 190.741 405.804 190.752L406.066 190.865C406.692 191.134 407.373 191.432 407.949 191.946C408.254 190.515 409.149 186.268 409.149 186.268C409.199 186.038 409.403 185.872 409.639 185.872H412.234C412.384 185.872 412.524 185.939 412.62 186.05C412.715 186.164 412.755 186.316 412.73 186.462L408.945 206.814C408.9 207.052 408.694 207.222 408.452 207.222L405.877 207.215C405.727 207.215 405.583 207.152 405.488 207.039C405.413 206.949 405.372 206.835 405.372 206.719C405.372 206.688 405.376 206.656 405.382 206.627C405.382 206.627 405.447 206.286 405.488 206.06C403.39 207.352 401.267 207.855 399.277 207.495C397 207.044 394.883 204.825 394.455 202.446C394.339 201.809 394.287 201.171 394.293 200.542C394.203 200.622 394.084 200.672 393.957 200.672L382.007 200.677C381.996 200.727 381.987 200.77 381.987 200.822C381.987 201.004 382.051 201.242 382.133 201.512L382.184 201.687C382.751 203.077 384.112 203.949 385.656 203.912C387.191 203.877 388.613 203.144 389.877 201.735C389.97 201.628 390.107 201.568 390.248 201.568H392.912C393.084 201.568 393.246 201.656 393.335 201.802C393.428 201.947 393.44 202.129 393.368 202.284C391.855 205.456 388.464 207.586 384.905 207.586C382.428 207.49 380.35 206.288 379.193 204.278C378.617 203.207 378.344 201.878 378.36 200.516L376.797 206.849C376.755 207.019 376.602 207.136 376.43 207.136H373.06C372.946 207.136 372.837 207.083 372.768 206.992C372.712 206.925 372.684 206.842 372.684 206.762C372.684 206.73 372.689 206.703 372.694 206.674C374.011 201.207 375.856 193.437 376.526 190.362L362.283 206.982C362.213 207.065 362.111 207.111 362.002 207.111L359.155 207.136C359.04 207.136 358.934 207.086 358.861 206.996C358.807 206.93 358.777 206.846 358.777 206.761C358.777 206.736 358.777 206.709 358.784 206.682C359.989 201.151 361.674 193.272 362.267 190.209L348.187 207.003C348.114 207.088 348.003 207.138 347.887 207.136C346.915 207.102 346.183 207.106 345.331 207.111H343.71C343.565 207.114 343.432 207.029 343.37 206.896ZM500.467 199.332C499.884 201.364 497.957 203.299 496.072 203.755C494.63 203.945 493.574 203.81 492.842 203.335C492.065 202.803 491.675 201.88 491.374 201.048C491.324 200.75 491.294 200.45 491.294 200.157C491.294 198.306 492.288 196.522 494.116 195.155C495.163 194.423 496.592 194.145 497.842 194.431C498.547 194.594 499.515 195.012 500.117 196.101C500.452 196.692 500.633 197.441 500.633 198.171C500.633 198.575 500.577 198.971 500.467 199.332ZM383.131 196.997L390.874 196.924C390.814 196.371 390.522 195.854 389.91 195.242C389.235 194.665 388.31 194.394 386.995 194.387C385.571 194.585 383.908 195.519 383.131 196.997ZM407.081 199.332C407.191 198.971 407.244 198.575 407.244 198.172C407.244 197.441 407.066 196.692 406.73 196.102C406.123 195.012 405.16 194.594 404.452 194.432C403.204 194.145 401.775 194.422 400.724 195.155C398.901 196.522 397.906 198.305 397.906 200.157C397.906 200.45 397.934 200.75 397.986 201.048C398.287 201.88 398.676 202.803 399.452 203.335C400.188 203.81 401.246 203.945 402.683 203.755C404.567 203.299 406.494 201.364 407.081 199.332ZM413.389 186.268L412.784 189.54C412.756 189.686 412.797 189.839 412.892 189.957C412.987 190.069 413.128 190.135 413.28 190.135H416.2C416.44 190.135 416.65 189.965 416.693 189.725L417.242 186.482C417.265 186.337 417.226 186.185 417.133 186.072C417.038 185.959 416.897 185.892 416.753 185.891L413.882 185.866C413.642 185.864 413.435 186.035 413.389 186.268ZM427.622 199.332C427.037 201.364 425.108 203.299 423.226 203.755C421.786 203.945 420.73 203.81 419.994 203.335C419.218 202.803 418.83 201.88 418.529 201.048C418.477 200.75 418.449 200.45 418.449 200.157C418.449 198.306 419.442 196.522 421.269 195.155C422.319 194.423 423.744 194.145 424.996 194.431C425.702 194.594 426.667 195.012 427.271 196.101C427.608 196.692 427.788 197.441 427.788 198.171C427.788 198.575 427.731 198.971 427.622 199.332ZM523.598 205.773L518.788 198.069C519.178 197.61 523.271 192.635 524.102 191.66L523.734 193.589C523.706 193.736 523.747 193.887 523.843 194C523.937 194.113 524.077 194.181 524.228 194.181H525.503C525.358 195.061 524.024 203.168 523.598 205.773ZM509.596 191.605L509.653 191.245C509.682 191.1 509.64 190.949 509.548 190.835C509.451 190.722 509.312 190.655 509.164 190.655H506.566C506.326 190.652 506.116 190.821 506.07 191.059L505.997 191.451L503.221 206.585C503.197 206.731 503.241 206.884 503.339 206.997C503.437 207.109 503.586 207.176 503.736 207.172L505.018 207.153H506.223C506.463 207.153 506.663 206.986 506.71 206.755L508.615 197.363C509.244 194.983 510.825 194.274 512.223 194.068C512.298 194.058 512.58 194.062 512.64 194.024C511.682 199.718 510.548 206.46 510.527 206.574C510.503 206.716 510.545 206.864 510.64 206.977C510.734 207.088 510.876 207.153 511.019 207.153H513.816C514.035 207.153 514.23 207.013 514.292 206.803C514.382 206.529 515.051 202.659 515.452 200.334C516.488 201.901 519.797 206.924 519.797 206.924C519.89 207.064 520.047 207.148 520.214 207.148L523.558 207.153C523.619 207.153 523.674 207.139 523.731 207.121C523.802 207.153 523.881 207.175 523.959 207.172L526.782 207.153C527.026 207.151 527.231 206.977 527.271 206.743L529.451 194.187L532.691 194.182C532.934 194.182 533.141 194.007 533.184 193.769L533.62 191.235C533.626 191.207 533.629 191.181 533.629 191.15C533.629 191.036 533.587 190.922 533.513 190.832C533.418 190.72 533.279 190.655 533.128 190.655H529.935C530.091 189.759 530.659 186.455 530.659 186.455C530.663 186.427 530.666 186.399 530.666 186.371C530.666 186.252 530.626 186.138 530.549 186.05C530.456 185.935 530.313 185.873 530.168 185.873H527.361C527.119 185.873 526.911 186.047 526.869 186.285C526.869 186.285 526.245 189.978 526.129 190.655C525.875 190.663 525.614 190.668 525.614 190.668L525.176 190.671L524.711 190.663C524.533 190.659 524.374 190.75 524.281 190.893C524.191 190.757 524.039 190.668 523.869 190.668L521.3 190.663H520.549C520.409 190.663 520.277 190.722 520.18 190.823C520.18 190.823 517.596 193.777 516.224 195.26C516.625 192.91 517.732 186.463 517.732 186.463C517.736 186.433 517.739 186.406 517.739 186.376C517.739 186.26 517.696 186.146 517.619 186.058C517.526 185.943 517.386 185.879 517.239 185.879L514.444 185.873C514.198 185.871 513.987 186.046 513.948 186.284C513.883 186.669 513.593 188.384 513.204 190.671L513.191 190.651C513.093 190.536 512.95 190.476 512.798 190.481C511.608 190.516 510.533 191.002 509.596 191.605Z" fill="#222222"/>
<g clip-path="url(#clip0_1_115)">
<path fill-rule="evenodd" clip-rule="evenodd" d="M659.747 187.698V181.481H681.607L687.576 198.112L693.621 181.481H700.288L690.599 208.293H684.63L677.111 187.698H671.452V208.293H665.019V187.698H659.747Z" fill="#222222"/>
<path fill-rule="evenodd" clip-rule="evenodd" d="M648.972 193.76V186.844C656.182 186.377 656.027 194.148 648.972 193.76ZM654.787 208.293H662.151L655.949 197.569C663.623 194.926 661.53 181.325 653.004 181.481H642.228V208.293H648.972V198.346L654.787 208.293ZM776.564 181.48H784.161L791.37 208.293H786.02L784.78 203.553H775.79L774.548 208.293H769.355L776.565 181.481L776.564 181.48ZM783.463 198.656H777.107L780.285 186.766L783.463 198.656Z" fill="#222222"/>
<path fill-rule="evenodd" clip-rule="evenodd" d="M801.292 198.967V193.217H813.152V202.542C811.292 204.952 810.052 206.817 807.57 207.983C805.943 208.759 803.307 209.381 800.904 209.381C797.959 209.381 795.555 208.837 793.694 207.75C791.835 206.583 790.673 205.107 789.664 202.93C788.657 200.677 788.424 198.112 788.424 195.236C788.424 192.206 788.812 189.486 789.974 187.31C791.059 185.056 792.688 183.424 794.858 182.257C796.563 181.325 798.346 180.937 801.214 180.937C804.004 180.937 806.02 181.17 807.416 181.714C808.811 182.257 809.896 183.113 810.826 184.279C811.679 185.445 812.376 186.921 812.842 188.709L806.33 190.185C806.02 189.097 805.555 188.32 804.78 187.775C804.082 187.233 803.152 186.844 802.067 186.688C799.82 186.377 798.037 187.62 797.029 188.864C796.021 190.184 795.555 192.205 795.555 195.082C795.555 198.035 796.021 200.599 797.029 201.92C798.037 203.165 799.509 203.864 801.292 203.864C802.145 203.864 802.997 203.708 803.772 203.396C804.547 203.165 805.401 202.698 806.408 201.998V198.968H801.292V198.967ZM822.687 187.543H819.198V202.309H822.687C829.197 202.309 829.352 187.543 822.687 187.543ZM821.679 181.481H813.152V208.371H821.679C837.648 208.371 837.958 181.481 821.679 181.481Z" fill="#222222"/>
<mask id="mask0_1_115" style="mask-type:alpha" maskUnits="userSpaceOnUse" x="642" y="160" width="192" height="70">
<path d="M642 230H834V160H642V230Z" fill="white"/>
</mask>
<g mask="url(#mask0_1_115)">
<path fill-rule="evenodd" clip-rule="evenodd" d="M694.397 208.294H773.076V181.481H694.397V208.294Z" fill="white"/>
<path fill-rule="evenodd" clip-rule="evenodd" d="M693.622 208.293H773.851V181.48H693.62V208.293H693.622ZM695.172 206.893H772.378V182.958H695.173V206.895L695.172 206.893Z" fill="#222222"/>
<path fill-rule="evenodd" clip-rule="evenodd" d="M712.846 201.766H699.358V187.931H712.459V190.651H703.002V193.449H711.76V195.392H703.002V199.434H712.846V201.766ZM749.433 201.766H745.324L745.248 198.035C745.248 196.092 742.845 196.169 741.294 196.169H738.736V201.766H734.473V187.93H744.085C750.364 187.93 751.837 193.06 747.185 194.926C748.348 195.313 749.355 196.48 749.355 197.956L749.433 201.765V201.766ZM738.581 194.07H742.612C743.698 194.07 744.55 193.914 745.016 193.681C745.48 193.371 745.79 192.904 745.79 192.282C745.79 191.117 744.782 190.495 742.845 190.495H738.581V194.07ZM760.518 187.698C761.758 187.698 762.921 187.854 763.929 188.242C765.014 188.554 765.944 189.019 766.719 189.642C767.495 190.262 768.038 191.04 768.502 191.895C768.89 192.827 769.122 193.76 769.122 194.849C769.122 195.859 768.968 196.869 768.502 197.724C768.115 198.58 767.495 199.356 766.719 199.978C765.944 200.599 765.014 201.143 764.007 201.455C762.921 201.765 761.759 201.998 760.518 201.998C759.278 201.998 758.038 201.766 757.03 201.455C755.945 201.143 755.015 200.599 754.318 199.978C753.542 199.356 752.921 198.656 752.535 197.724C752.069 196.869 751.836 195.936 751.836 194.849C751.836 193.76 752.069 192.749 752.535 191.895C752.921 191.04 753.542 190.263 754.318 189.642C755.093 189.019 756.023 188.554 757.03 188.242C758.116 187.854 759.278 187.698 760.518 187.698ZM760.518 199.511C761.216 199.511 761.914 199.434 762.611 199.201C763.231 198.967 763.774 198.656 764.239 198.268C764.704 197.88 765.014 197.413 765.324 196.792C765.557 196.248 765.712 195.548 765.712 194.849C765.712 194.071 765.557 193.449 765.324 192.827C765.014 192.283 764.704 191.817 764.239 191.429C763.774 191.039 763.231 190.729 762.611 190.496C761.914 190.263 761.293 190.185 760.518 190.185C759.82 190.185 759.123 190.263 758.426 190.495C757.806 190.729 757.263 191.04 756.798 191.429C756.333 191.817 755.945 192.283 755.712 192.905C755.48 193.449 755.325 194.071 755.325 194.849C755.325 195.548 755.48 196.248 755.712 196.792C755.945 197.413 756.332 197.88 756.798 198.268C757.263 198.656 757.805 198.968 758.426 199.201C759.046 199.434 759.743 199.511 760.518 199.511ZM716.8 187.931H720.288V197.724C720.442 200.444 727.264 200.366 727.108 197.724V187.93H730.907L730.829 197.956C730.907 203.086 716.876 203.086 716.799 197.956V187.931H716.8ZM767.96 187.854C766.874 187.854 766.022 186.999 766.022 185.91C766.022 184.823 766.874 183.968 767.96 183.968C769.046 183.968 769.898 184.823 769.898 185.91C769.898 186.999 769.046 187.854 767.96 187.854ZM767.96 187.543C768.89 187.543 769.588 186.766 769.588 185.91C769.588 184.978 768.89 184.2 767.96 184.2C767.03 184.2 766.332 184.978 766.332 185.91C766.332 186.766 767.03 187.543 767.96 187.543ZM767.65 185.677H768.348C768.348 185.6 768.425 185.6 768.425 185.6C768.503 185.523 768.503 185.445 768.503 185.445C768.503 185.367 768.503 185.289 768.425 185.211C768.425 185.211 768.348 185.134 768.27 185.134H767.65V185.677ZM767.185 186.922V184.822H768.58L768.813 185.056C768.89 185.134 768.89 185.289 768.89 185.366C768.89 185.523 768.89 185.677 768.813 185.756C768.657 185.832 768.58 185.91 768.348 185.988C768.425 185.988 768.503 186.066 768.58 186.144C768.657 186.222 768.735 186.3 768.813 186.454L769.123 186.922H768.58L768.27 186.454C768.193 186.3 768.115 186.144 768.038 186.144C768.038 186.066 767.96 186.066 767.96 186.066C767.882 185.988 767.805 185.988 767.727 185.988H767.65V186.922H767.185Z" fill="#222222"/>
</g>
</g>
<path fill-rule="evenodd" clip-rule="evenodd" d="M1038.12 209.316C1044.32 209.316 1048.45 205.307 1048.45 198.542V181.235H1041.67V198.27C1041.67 201.42 1040.53 202.98 1038.15 202.98C1035.86 202.98 1034.87 201.383 1034.87 198.27V181.235H1028.05V198.542C1028.06 205.457 1031.84 209.316 1038.11 209.316H1038.12ZM1058.52 193.991H1057.27V187.421H1059.06C1062.07 187.421 1063.51 188.356 1063.51 190.646C1063.5 193.132 1061.87 193.991 1058.52 193.991ZM1066.62 182.749C1064.75 181.431 1062.53 181.235 1059.61 181.235H1050.41V208.886H1057.19V199.981H1059.14C1062.02 199.981 1064.21 199.784 1065.97 198.738C1068.73 197.066 1070.37 194.113 1070.37 190.533C1070.37 187.066 1069.09 184.459 1066.62 182.749ZM1107.89 193.486L1118.22 208.887H1124.18V181.235H1117.41V196.598L1107.22 181.235H1101.1V208.887H1107.89V193.486ZM1012.07 202.55C1008.25 202.55 1004.78 199.205 1004.78 194.85C1004.78 190.804 1008.01 187.581 1012.15 187.581C1016.05 187.581 1019.29 190.804 1019.29 194.851C1019.28 199.355 1016.05 202.551 1012.07 202.551V202.55ZM1022.01 184.814C1019.32 182.17 1015.82 180.731 1012.11 180.731C1008.17 180.731 1004.73 182.095 1002.01 184.777C999.281 187.458 997.791 190.963 997.791 194.775C997.791 198.859 999.122 202.279 1001.73 205.046C1004.45 207.924 1007.97 209.4 1012.06 209.4C1015.92 209.4 1019.58 207.887 1022.27 205.084C1024.89 202.401 1026.29 198.859 1026.29 194.898C1026.3 191.112 1024.82 187.571 1022.01 184.814ZM1085.54 202.55C1081.72 202.55 1078.25 199.205 1078.25 194.85C1078.25 190.804 1081.49 187.581 1085.62 187.581C1089.52 187.581 1092.76 190.804 1092.76 194.851C1092.75 199.355 1089.51 202.551 1085.54 202.551V202.55ZM1095.48 184.814C1092.79 182.17 1089.28 180.731 1085.58 180.731C1081.63 180.731 1078.21 182.095 1075.48 184.777C1072.75 187.458 1071.26 190.963 1071.26 194.775C1071.26 198.859 1072.59 202.279 1075.2 205.046C1077.93 207.924 1081.44 209.4 1085.53 209.4C1089.39 209.4 1093.05 207.887 1095.74 205.084C1098.36 202.401 1099.76 198.859 1099.76 194.898C1099.77 191.112 1098.29 187.571 1095.48 184.814H1095.48ZM950.581 205.036C953.307 207.914 956.784 209.429 960.878 209.429C965.599 209.429 970.041 207.092 972.692 203.242C974.294 200.905 975.072 198.261 975.072 195.15C975.072 194.57 975.034 193.944 974.997 193.317H959.201V198.84H967.118C965.749 201.252 963.454 202.578 960.878 202.578C957.055 202.578 953.626 199.196 953.626 194.794C953.626 190.823 956.821 187.524 960.878 187.524C963.061 187.524 964.85 188.422 966.574 190.207H974.294C972.074 184.291 966.884 180.674 960.962 180.674C957.027 180.674 953.597 182.076 950.862 184.758C948.136 187.441 946.656 190.945 946.656 194.757C946.646 198.85 947.967 202.27 950.581 205.037V205.036ZM984.891 193.991H983.569V187.421H985.443C988.441 187.421 989.884 188.356 989.884 190.646C989.884 193.132 988.244 193.991 984.891 193.991ZM990.465 199.392C994.4 198.299 996.743 194.962 996.743 190.487C996.743 187.067 995.458 184.459 992.995 182.749C991.121 181.431 988.901 181.235 985.977 181.235H976.777V208.886H983.56V199.981L988.863 208.886H997.248L990.465 199.392ZM1126.99 181.375C1127.35 181.021 1127.77 180.843 1128.26 180.843C1128.76 180.843 1129.19 181.021 1129.54 181.375C1129.88 181.722 1130.06 182.151 1130.06 182.645C1130.06 183.142 1129.88 183.572 1129.54 183.927C1129.19 184.281 1128.77 184.459 1128.26 184.459C1127.77 184.459 1127.34 184.281 1126.99 183.927C1126.64 183.572 1126.46 183.151 1126.46 182.646C1126.46 182.151 1126.63 181.731 1126.99 181.376V181.375ZM1128.25 184.74C1128.84 184.74 1129.33 184.534 1129.73 184.123C1130.15 183.712 1130.34 183.216 1130.34 182.646C1130.34 182.066 1130.14 181.581 1129.73 181.178C1129.33 180.777 1128.84 180.572 1128.25 180.572C1127.68 180.572 1127.19 180.777 1126.78 181.178C1126.37 181.591 1126.17 182.076 1126.17 182.646C1126.17 183.225 1126.38 183.721 1126.78 184.123C1127.19 184.533 1127.67 184.74 1128.25 184.74Z" fill="#222222"/>
<path fill-rule="evenodd" clip-rule="evenodd" d="M1128.57 182.543C1128.49 182.581 1128.36 182.591 1128.19 182.591H1127.82V181.759H1128.17C1128.39 181.759 1128.55 181.787 1128.66 181.843C1128.76 181.899 1128.81 182.011 1128.81 182.179C1128.81 182.366 1128.72 182.489 1128.57 182.543ZM1129.18 183.749C1129.17 183.729 1129.16 183.692 1129.16 183.628C1129.16 183.572 1129.15 183.507 1129.15 183.46V183.29C1129.15 183.18 1129.12 183.058 1129.03 182.935C1128.95 182.815 1128.82 182.74 1128.64 182.711C1128.78 182.693 1128.89 182.655 1128.97 182.599C1129.12 182.506 1129.19 182.347 1129.19 182.151C1129.19 181.861 1129.07 181.665 1128.83 181.572C1128.7 181.515 1128.5 181.487 1128.21 181.487H1127.4V183.777H1127.8V182.88H1128.12C1128.34 182.88 1128.49 182.908 1128.57 182.955C1128.72 183.039 1128.79 183.217 1128.79 183.478V183.656L1128.8 183.73V183.759C1128.8 183.768 1128.8 183.777 1128.81 183.777H1129.18V183.749Z" fill="#222222"/>
<defs>
<clipPath id="clip0_1_115">
<rect width="192" height="70" fill="white" transform="translate(642 160)"/>
</clipPath>
</defs>
</svg>
