<svg width="26" height="23" viewBox="0 0 26 23" fill="none" xmlns="http://www.w3.org/2000/svg">
<path d="M23.1703 2.15022L23.0897 1.94581C23.0874 1.93994 23.0828 1.9351 23.0771 1.93248L22.8771 1.84162C21.2312 1.09354 18.9095 0.908952 16.8554 0.827148H14.5418C14.5157 0.827148 14.5077 0.862471 14.5312 0.873757L19.2835 3.1536C19.3103 3.16642 19.2955 3.20633 19.2667 3.19881C17.1294 2.64028 14.9703 2.35757 12.8383 2.35757C10.7131 2.35757 8.56097 2.63855 6.43027 3.19352C6.40127 3.20104 6.38656 3.16068 6.41376 3.14812L11.3328 0.874012C11.3566 0.862981 11.3489 0.827276 11.3225 0.827276H8.82119C6.76714 0.909079 4.44534 1.09366 2.79946 1.84175L2.59952 1.93261C2.59372 1.93522 2.58913 1.94001 2.58684 1.94594L2.5063 2.15035C0.821867 6.42134 0.343223 13.672 0.853662 18.2143L0.880424 18.4525L1.06979 18.5995C3.70119 20.6413 7.21972 21.6911 9.4332 21.9697L9.71942 22.0057C9.81244 22.0174 9.90133 21.9636 9.93421 21.8757L11.3749 18.0242C11.4198 17.9042 11.3433 17.7731 11.2168 17.7532L10.7747 17.6837C9.23319 17.4413 7.04915 16.7989 5.20345 15.1239C5.16408 15.0882 5.20205 15.0239 5.25188 15.0424C5.40187 15.0982 5.56728 15.1628 5.73759 15.2294C6.15494 15.3925 6.58656 15.5613 6.86819 15.6282C8.84751 16.0991 10.8547 16.338 12.8381 16.338V16.3026H12.8423L12.8425 16.338C14.822 16.338 16.8291 16.0992 18.8082 15.6282C19.0899 15.5612 19.5216 15.3925 19.939 15.2293C20.1092 15.1628 20.2745 15.0981 20.4244 15.0424C20.4743 15.0239 20.5122 15.0882 20.4729 15.1239C18.6333 16.7915 16.4466 17.4323 14.9016 17.6744L14.4597 17.7437C14.3331 17.7635 14.2565 17.8945 14.3014 18.0145L15.7423 21.8755C15.7751 21.9635 15.8641 22.0173 15.9571 22.0056L16.2436 21.9696C18.4569 21.691 21.9752 20.6412 24.6066 18.5994L24.796 18.4524L24.8228 18.2142C25.3333 13.672 24.8546 6.42127 23.1703 2.15022ZM8.13617 12.6362C6.3468 12.7959 4.85396 11.3022 5.01332 9.51163C5.13553 8.13908 6.24001 7.03375 7.61171 6.91133C9.40109 6.75168 10.8939 8.24537 10.7346 10.0359C10.6123 11.4085 9.50781 12.5138 8.13617 12.6362ZM18.065 12.6362C16.2756 12.7959 14.7828 11.3022 14.9421 9.51163C15.0643 8.13908 16.1688 7.03375 17.5405 6.91133C19.3298 6.75168 20.8227 8.24537 20.6634 10.0359C20.5411 11.4085 19.4366 12.5138 18.065 12.6362Z" fill="#FAEB8C"/>
</svg>
