<svg width="25" height="17" viewBox="0 0 25 17" fill="none" xmlns="http://www.w3.org/2000/svg">
<path d="M23.5036 1.65809C22.8429 0.482862 22.1259 0.266693 20.666 0.184487C19.2076 0.0855363 15.5403 0.0444336 12.3633 0.0444336C9.18008 0.0444336 5.51129 0.0855363 4.05443 0.182965C2.59756 0.266693 1.87903 0.48134 1.21225 1.65809C0.531775 2.8318 0.181641 4.85345 0.181641 8.41263C0.181641 8.41568 0.181641 8.4172 0.181641 8.4172C0.181641 8.42025 0.181641 8.42177 0.181641 8.42177V8.42481C0.181641 11.9688 0.531775 14.0056 1.21225 15.1672C1.87903 16.3424 2.59604 16.5555 4.0529 16.6545C5.51129 16.7397 9.18008 16.79 12.3633 16.79C15.5403 16.79 19.2076 16.7397 20.6675 16.656C22.1274 16.5571 22.8444 16.3439 23.5051 15.1687C24.1917 14.0072 24.5388 11.9703 24.5388 8.42634C24.5388 8.42634 24.5388 8.42177 24.5388 8.41872C24.5388 8.41872 24.5388 8.41568 24.5388 8.41416C24.5388 4.85345 24.1917 2.8318 23.5036 1.65809ZM9.31557 12.9842V3.85024L16.9272 8.4172L9.31557 12.9842Z" fill="#FAEB8C"/>
</svg>
