<svg width="25" height="20" viewBox="0 0 25 20" fill="none" xmlns="http://www.w3.org/2000/svg">
<path d="M24.1817 3.19216C23.3247 3.57216 22.4029 3.82918 21.4362 3.94396C22.4232 3.35258 23.1807 2.41684 23.5383 1.30002C22.6146 1.84792 21.5912 2.24538 20.5029 2.45962C19.631 1.53102 18.3887 0.950684 17.0131 0.950684C14.3738 0.950684 12.2332 3.09128 12.2332 5.73058C12.2332 6.10523 12.2756 6.4699 12.3576 6.81995C8.38509 6.62069 4.86281 4.71785 2.50512 1.8251C2.09376 2.53091 1.85778 3.35258 1.85778 4.22842C1.85778 5.88636 2.70225 7.35002 3.98412 8.20698C3.20095 8.18238 2.46342 7.96743 1.81928 7.60847C1.81892 7.62878 1.81892 7.6491 1.81892 7.66907C1.81892 9.98505 3.46724 11.9168 5.65346 12.3556C5.25279 12.4654 4.82966 12.5235 4.39441 12.5235C4.08571 12.5235 3.78663 12.4939 3.49504 12.4383C4.10318 14.3368 5.86806 15.7189 7.96018 15.7577C6.32398 17.0399 4.26323 17.8039 2.02318 17.8039C1.63819 17.8039 1.25677 17.7814 0.883545 17.7368C2.99777 19.0936 5.51088 19.8846 8.21006 19.8846C17.002 19.8846 21.8101 12.6012 21.8101 6.28418C21.8101 6.07707 21.8055 5.87068 21.7962 5.66606C22.7309 4.99234 23.5411 4.15071 24.1817 3.19216Z" fill="#FAEB8C"/>
</svg>
