<svg width="21" height="22" viewBox="0 0 21 22" fill="none" xmlns="http://www.w3.org/2000/svg">
<path d="M19.1494 11.792C18.9862 11.5524 18.808 11.3236 18.6156 11.1068C18.7418 10.9229 18.8336 10.7176 18.8867 10.501C18.9485 10.2422 18.9804 9.97712 18.982 9.71101C18.982 9.27258 18.8941 8.86698 18.7279 8.49951C18.5552 8.1265 18.3146 7.78892 18.0183 7.50404L17.7313 7.21599C17.6996 6.9057 17.6435 6.51493 17.5407 5.9886C17.2844 4.65743 16.1132 2.61673 14.6867 1.63609C13.3005 0.689335 11.5393 0.314446 10.6 0.297502C9.82693 0.290089 8.05838 0.57708 6.51224 1.63715C5.08575 2.61673 3.81918 4.64155 3.65927 5.98966C3.57243 6.75426 3.54808 7.24035 3.55655 7.60676C3.53219 7.61523 3.38923 7.64701 3.22084 7.76561C3.12077 7.83431 3.03455 7.92125 2.96668 8.02189C2.87846 8.14537 2.81844 8.28673 2.79089 8.43596C2.74323 8.69013 2.71146 8.81827 2.70299 8.89134C2.65722 8.94776 2.61747 9.00881 2.58438 9.07349C2.53533 9.15953 2.49523 9.25037 2.46471 9.34459C2.40415 9.53823 2.39322 9.74397 2.43294 9.94293C2.46471 10.0859 2.51978 10.2924 2.61615 10.5487C2.66381 10.6684 2.71888 10.787 2.78348 10.9225C2.54414 11.1777 2.28892 11.4806 2.05806 11.8153C1.27545 12.9558 0.431422 15.0283 0.550031 16.225C0.708882 17.7309 0.907975 17.7796 1.4343 17.4682C2.01675 17.1177 2.67757 16.065 2.67757 16.065C2.67757 16.065 3.38711 17.9946 4.54143 19.0229C5.88848 20.2185 7.13175 20.9439 8.63766 21.2542C9.6183 21.4533 10.2717 21.485 10.5979 21.4776C10.9325 21.485 11.5785 21.4533 12.5581 21.2552C14.0651 20.9439 15.3073 20.2174 16.6543 19.0229C17.8097 17.9946 18.5182 16.065 18.5182 16.065C18.5182 16.065 19.1801 17.1177 19.7625 17.4682C20.2804 17.7796 20.4869 17.7309 20.6468 16.225C20.7739 15.0135 19.9298 12.941 19.1483 11.793L19.1494 11.792ZM12.6079 3.50206C13.364 3.50206 13.9782 4.41915 13.9782 5.55017C13.9782 6.68331 13.364 7.59935 12.6079 7.59935C11.8507 7.59935 11.2365 6.68225 11.2365 5.55017C11.2365 4.41915 11.8507 3.50206 12.6079 3.50206ZM8.77427 3.50206C9.53146 3.50206 10.1446 4.41915 10.1446 5.55017C10.1446 6.68331 9.53146 7.59935 8.77427 7.59935C8.01708 7.59935 7.40392 6.68225 7.40392 5.55017C7.40392 4.41915 8.01814 3.50206 8.77427 3.50206ZM7.76292 8.32477C8.70226 7.91811 10.4242 7.83021 10.87 7.80586H10.9654C11.4123 7.82174 13.1257 7.91811 14.0735 8.32477C15.1643 8.79497 15.787 9.05019 15.787 9.31282C15.787 9.57546 15.5794 9.83174 15.0055 10.0944C14.4325 10.357 14.1773 10.3009 14.1773 10.3009C14.1773 10.3009 14.4876 9.94293 14.5914 9.57546C14.5914 9.57546 13.0378 10.859 11.1655 10.9712H10.6466C8.77427 10.859 7.22177 9.5744 7.22177 9.5744C7.32555 9.94187 7.63584 10.2998 7.63584 10.2998C7.63584 10.2998 7.37321 10.3559 6.8077 10.0933C6.23372 9.82962 6.02615 9.5744 6.02615 9.31176C6.02615 9.04913 6.67956 8.78544 7.76292 8.32371V8.32477ZM3.06941 9.24928C3.08335 9.22671 3.0993 9.20545 3.11706 9.18574C3.12448 9.17727 3.12448 9.17727 3.12448 9.16986L3.1806 9.11373L3.19649 9.0343L3.30027 8.51539C3.31616 8.42008 3.35534 8.35654 3.38817 8.30041C3.40982 8.27222 3.43354 8.24567 3.45912 8.22099C3.49089 8.3163 3.53855 8.42855 3.60315 8.55563C3.7387 8.84156 3.9452 9.20163 4.25655 9.56804C4.71828 10.1261 5.41087 10.7234 6.42328 11.1777C7.43569 11.6331 8.77427 11.9434 10.5195 11.9434H10.7663C12.376 11.919 13.6362 11.6479 14.6316 11.2582C15.2816 11.0042 15.8887 10.652 16.4319 10.214C16.9919 9.76144 17.4508 9.19649 17.779 8.55563C17.8425 8.42008 17.8987 8.30147 17.9379 8.19663C18.0649 8.36395 18.1698 8.53975 18.2566 8.71554C18.3922 9.01842 18.4727 9.34459 18.4727 9.71101C18.4727 9.92705 18.4483 10.1494 18.3922 10.3888C18.3552 10.5263 18.2989 10.6579 18.2248 10.7795C18.066 11.0422 17.8034 11.3451 17.4687 11.6638C16.8769 12.197 16.2175 12.6499 15.5074 13.0109C14.7344 13.4101 13.8744 13.7289 13.0061 13.8718C12.4451 13.9657 11.8772 14.0111 11.3085 14.0074C10.2008 14.0074 9.07715 13.8485 8.04885 13.6007C7.11248 13.3816 6.20195 13.0639 5.3325 12.6529C4.4154 12.206 3.84142 11.6162 3.48348 11.0824C3.32747 10.8498 3.19648 10.6013 3.09271 10.3411C3.02514 10.1759 2.972 10.0051 2.93385 9.83068C2.92509 9.78597 2.91978 9.74065 2.91797 9.69512C2.91797 9.62417 2.93385 9.55216 2.94974 9.48862C2.97975 9.40427 3.01994 9.3239 3.06941 9.24928ZM15.8347 18.6871C14.3521 20.6474 11.4927 20.9979 10.6074 21.054C9.72314 20.9905 6.86171 20.64 5.38016 18.6871C3.61903 16.351 3.92932 13.8644 4.13689 13.138C4.18454 12.9717 4.24808 12.8044 4.31162 12.637C4.55096 12.8044 4.81359 12.9632 5.10905 13.1072C5.88954 13.4895 6.86171 13.8401 7.93025 14.0953C8.99772 14.3505 10.1531 14.5178 11.3085 14.5178C11.9058 14.5178 12.5041 14.4702 13.0855 14.3749C14.5046 14.1355 15.8664 13.4821 16.9191 12.7408C16.9265 12.7408 16.9265 12.7324 16.9339 12.7324C16.99 12.8679 17.0377 13.0035 17.0695 13.1305C17.2844 13.8718 17.5958 16.3594 15.8347 18.6871Z" fill="#FAEB8C"/>
</svg>
